<?xml version="1.0" encoding="utf-8"?>
<!-- Generator: Adobe Illustrator 24.2.0, SVG Export Plug-In . SVG Version: 6.00 Build 0)  -->
<svg version="1.0" id="Layer_1" xmlns="http://www.w3.org/2000/svg" xmlns:xlink="http://www.w3.org/1999/xlink" x="0px" y="0px"
	 viewBox="0 0 300 280" enable-background="new 0 0 300 280" xml:space="preserve">
<g>
	<polygon fill="#010101" points="63.82,160.15 63.25,161.66 67.35,161.66 82.64,155.02 	"/>
	<g>
		<g>
			<defs>
				<polygon id="SVGID_1_" points="59.51,161.66 63.25,161.66 76.88,127.21 90.49,161.66 93.95,161.66 76.91,118.34 				"/>
			</defs>
			<clipPath id="SVGID_2_">
				<use xlink:href="#SVGID_1_"  overflow="visible"/>
			</clipPath>
			
				<linearGradient id="SVGID_3_" gradientUnits="userSpaceOnUse" x1="-127.363" y1="-148.7915" x2="-126.2356" y2="-148.7915" gradientTransform="matrix(32.072 0 0 32.072 4143.4209 4912.0259)">
				<stop  offset="0" style="stop-color:#0260A2"/>
				<stop  offset="0.0552" style="stop-color:#0461A2"/>
				<stop  offset="0.1151" style="stop-color:#0168A8"/>
				<stop  offset="0.5227" style="stop-color:#0F92CF"/>
				<stop  offset="0.7301" style="stop-color:#14A2DD"/>
				<stop  offset="1" style="stop-color:#14A2DD"/>
			</linearGradient>
			<rect x="59.51" y="118.34" clip-path="url(#SVGID_2_)" fill="url(#SVGID_3_)" width="34.45" height="43.29"/>
		</g>
	</g>
	<polygon fill="#010101" points="119.56,148.69 125.24,134.54 127.86,134.54 119.56,154.69 111.24,134.54 113.86,134.54 	"/>
	<polygon fill="#010101" points="135.34,134.54 145.6,134.54 145.6,136.71 137.72,136.71 137.72,142.84 145.38,142.84 
		145.38,145.04 137.72,145.04 137.72,151.49 145.6,151.49 145.6,153.66 135.34,153.66 	"/>
	<polygon fill="#010101" points="154.68,133.61 169.03,148.66 169.03,134.54 171.42,134.54 171.42,154.45 157.06,139.4 
		157.06,153.66 154.68,153.66 	"/>
	<polygon fill="#010101" points="186.32,153.66 183.93,153.66 183.93,136.71 179.02,136.71 179.02,134.54 191.23,134.54 
		191.23,136.71 186.32,136.71 	"/>
	<path fill="#010101" d="M203.75,133.73l-9.14,19.94h2.56l2.17-4.8h0.06l0.09-0.18h8.51l0.09,0.18h0.03l2.17,4.8h2.56L203.75,133.73
		z M207.07,146.52h-6.64l3.32-7.57L207.07,146.52z"/>
	<g>
		<path fill="#010101" d="M227.88,138.16c-0.72-1.21-1.63-1.81-3.08-1.81c-1.51,0-3.2,1.06-3.2,2.71c0,1.51,1.48,2.29,2.65,2.74
			l1.36,0.54c2.71,1.06,4.74,2.56,4.74,5.76c0,3.47-2.68,5.97-6.12,5.97c-3.11,0-5.52-2.29-5.91-5.37l2.41-0.51
			c-0.03,2.11,1.66,3.62,3.71,3.62c2.05,0,3.53-1.72,3.53-3.74c0-2.05-1.66-2.96-3.29-3.62l-1.33-0.54
			c-2.17-0.94-4.16-2.17-4.16-4.86c0-3.11,2.74-4.95,5.64-4.95c2.14,0,3.89,1.03,4.92,2.9L227.88,138.16z"/>
		<path fill="#010101" d="M234.94,137.1c0-1.54,1.24-2.78,2.78-2.78c1.54,0,2.78,1.24,2.78,2.78c0,1.54-1.24,2.78-2.78,2.78
			C236.18,139.88,234.94,138.64,234.94,137.1 M240.13,137.1c0-1.36-1.09-2.41-2.41-2.41c-1.36,0-2.44,1.09-2.44,2.41
			c0,1.36,1.09,2.44,2.44,2.44C239.08,139.55,240.13,138.46,240.13,137.1 M239.08,138.67h-0.45l-0.87-1.39h-0.69v1.39h-0.33v-3.05
			h1.33c0.81,0,1.09,0.3,1.09,0.81c0,0.6-0.42,0.81-0.97,0.84L239.08,138.67z M237.66,136.95c0.42,0,1.12,0.06,1.12-0.48
			c0-0.39-0.45-0.45-0.81-0.45h-0.9v0.94H237.66z"/>
	</g>
</g>
</svg>
